<?xml version="1.0" standalone="no"?>
<!DOCTYPE svg PUBLIC "-//W3C//DTD SVG 20010904//EN"
 "http://www.w3.org/TR/2001/REC-SVG-20010904/DTD/svg10.dtd">
<svg version="1.0" xmlns="http://www.w3.org/2000/svg"
 width="1024.000000pt" height="1024.000000pt" viewBox="0 0 1024.000000 1024.000000"
 preserveAspectRatio="xMidYMid meet">

<g transform="translate(0.000000,1024.000000) scale(0.100000,-0.100000)"
fill="#000000" stroke="none">
<path d="M0 5120 l0 -5120 5120 0 5120 0 0 5120 0 5120 -5120 0 -5120 0 0
-5120z m3668 3630 c89 -42 149 -110 299 -340 31 -47 99 -150 151 -229 101
-152 101 -154 37 -166 -16 -3 -554 -4 -1195 -3 l-1165 3 -52 29 c-62 34 -152
125 -181 181 -33 66 -45 149 -38 265 9 151 17 178 67 223 77 68 32 66 1074 66
l940 1 63 -30z m1192 -1482 l-1 -883 -27 31 c-15 17 -69 79 -119 138 l-93 107
0 738 c0 406 3 741 7 744 3 4 57 7 120 7 l113 0 0 -882z m490 -278 c0 -638 -2
-1160 -4 -1160 -3 0 -29 26 -58 57 -29 31 -62 67 -73 78 -11 12 -37 41 -57 65
l-38 44 0 1038 0 1038 115 0 115 0 0 -1160z m940 -20 l0 -1179 -290 -3 -290
-3 0 1183 0 1182 290 0 290 0 0 -1180z m680 -2 l0 -1183 -160 0 -160 0 0 1183
0 1182 160 0 160 0 0 -1182z m470 0 l0 -1183 -110 0 -110 0 0 1183 0 1182 110
0 110 0 0 -1182z m560 7 c0 -646 0 -1178 0 -1181 0 -3 -57 -5 -127 -5 l-128 0
-3 1180 -2 1181 130 0 130 0 0 -1175z m600 -440 l0 -1615 -125 0 -125 0 0
1615 0 1615 125 0 125 0 0 -1615z m-5263 1158 c62 -79 202 -242 293 -343 47
-52 103 -117 125 -145 22 -27 58 -72 82 -100 150 -178 278 -336 356 -440 88
-117 266 -345 277 -355 3 -3 37 -43 75 -90 39 -47 104 -125 146 -175 113 -132
274 -339 332 -424 55 -82 86 -161 63 -161 -33 0 -291 162 -327 206 -8 10 -77
71 -154 138 -77 66 -153 132 -170 147 -38 33 -261 226 -379 328 -94 80 -246
215 -461 410 -71 65 -177 161 -235 212 -58 52 -202 183 -320 291 -118 108
-228 207 -245 219 -68 52 -177 154 -255 239 l-82 90 420 0 421 0 38 -47z m756
-1980 l367 -158 -32 -15 c-18 -8 -161 -77 -318 -153 -157 -76 -321 -155 -365
-175 -44 -20 -142 -67 -218 -104 -76 -37 -139 -68 -141 -68 -2 0 -71 -32 -153
-71 -81 -39 -166 -79 -188 -89 -22 -9 -168 -78 -325 -153 l-285 -136 -155 80
c-85 45 -247 128 -359 187 -187 96 -203 106 -180 116 13 5 66 29 117 53 52 24
95 43 97 43 2 0 50 22 107 49 57 26 132 62 168 79 169 80 866 404 1035 482
105 49 240 111 300 139 61 28 121 51 135 51 14 0 190 -71 393 -157z m3219
-598 l3 -195 -122 0 -123 0 0 195 0 195 120 0 119 0 3 -195z m688 0 l0 -195
-130 0 -130 0 0 195 0 195 130 0 130 0 0 -195z m-2928 136 c40 -16 144 -61
231 -100 86 -39 159 -71 161 -71 3 0 69 -31 148 -68 79 -38 158 -74 176 -81
17 -8 32 -16 31 -20 0 -3 -60 -34 -132 -69 -73 -35 -296 -148 -497 -251 -201
-104 -555 -286 -786 -404 -232 -119 -460 -236 -506 -261 l-85 -46 -249 130
c-137 72 -324 169 -416 217 -92 48 -164 90 -160 94 4 3 142 70 307 149 584
277 685 327 1160 567 326 164 490 243 512 243 18 0 65 -13 105 -29z m-3166
-677 c192 -97 359 -181 371 -188 l23 -11 0 -302 0 -302 28 -21 c15 -12 67 -41
117 -64 49 -22 165 -78 259 -124 93 -45 171 -80 173 -78 9 9 12 75 12 329 l1
268 390 -198 390 -198 0 -1117 c0 -615 -2 -1118 -4 -1118 -16 0 -2075 1034
-2091 1050 -20 20 -20 31 -23 1135 -1 613 -1 1115 1 1115 3 0 161 -79 353
-176z m3994 -972 l0 -1089 -22 -20 c-29 -26 -95 -61 -393 -211 -132 -66 -287
-146 -345 -177 -372 -201 -1229 -645 -1243 -645 -4 0 -7 497 -7 1104 l0 1104
203 105 c111 58 236 124 277 147 41 23 264 136 495 252 231 116 425 214 431
219 16 13 586 299 596 299 4 0 8 -490 8 -1088z m2627 492 c15 -11 39 -42 53
-70 22 -43 25 -65 28 -169 l4 -120 -1126 -4 -1126 -3 0 128 c0 150 10 179 78
231 l44 33 1008 -2 c999 -3 1009 -3 1037 -24z m-1507 -764 l0 -240 -330 0
-330 0 0 240 0 240 330 0 330 0 0 -240z m780 0 l0 -240 -320 2 -320 3 -1 230
c0 127 0 233 0 238 1 4 145 7 321 7 l320 0 0 -240z m805 0 l0 -235 -337 -3
-338 -2 0 240 0 240 338 -2 337 -3 0 -235z m-1579 -615 l-1 -235 -332 0 -333
0 0 235 0 235 334 0 333 0 -1 -235z m784 0 l0 -235 -318 0 c-175 0 -321 2
-323 4 -2 2 -3 108 -1 235 l3 231 319 0 320 0 0 -235z m800 0 l0 -235 -330 0
-329 0 -3 231 c-2 127 -1 233 1 235 2 2 152 4 333 4 l328 0 0 -235z m-1590
-620 l0 -235 -248 0 c-244 0 -249 0 -298 25 -52 26 -88 70 -104 126 -6 19 -10
98 -10 176 l0 143 330 0 330 0 0 -235z m790 5 l0 -230 -327 0 -328 0 2 227 c2
126 3 229 3 231 0 1 146 2 325 2 l325 0 0 -230z m798 62 c-3 -160 -4 -170 -28
-204 -37 -54 -92 -86 -163 -93 -70 -7 -467 1 -467 9 0 4 0 107 0 231 l0 225
331 0 331 0 -4 -168z"/>
<path d="M5997 7994 c-4 -4 -7 -482 -7 -1061 0 -999 1 -1054 18 -1051 16 3 17
61 17 1057 0 1022 -2 1081 -28 1055z"/>
</g>
</svg>
